PathFileType	4	(X/Y/Z)	C:\Users\WrightLab\Desktop\Jo\P4V119.trc
DataRate	CameraRate	NumFrames	NumMarkers	Units	OrigDataRate	OrigDataStartFrame	OrigNumFrames
100.00	100.00	       58	19	mm	100.00	88	       697
Frame#	Time	Headset_Front			Headset_Back			Headset_Left			Headset_Right			Left_Shoulder			Right_Shoulder			Sternum			C7			Left Elbow			Right Elbow			Left Wrist			Right Wrist			Left ASIS			Right ASIS			S2			Left Knee			Right Knee			Left Ankle			Right Ankle			
		X1	Y1	Z1	X2	Y2	Z2	X3	Y3	Z3	X4	Y4	Z4	X5	Y5	Z5	X6	Y6	Z6	X7	Y7	Z7	X8	Y8	Z8	X9	Y9	Z9	X10	Y10	Z10	X11	Y11	Z11	X12	Y12	Z12	X13	Y13	Z13	X14	Y14	Z14	X15	Y15	Z15	X16	Y16	Z16	X17	Y17	Z17	X18	Y18	Z18	X19	Y19	Z19	

88	0.870																									192.21219	1143.10034	-1614.57019				168.22978	856.76404	-1485.42505													54.75653	510.49710	-1537.87012	-273.25888	511.45883	-1522.51709							
89	0.880																									191.98134	1142.48840	-1612.12146				167.31030	857.29382	-1482.58020													55.27765	510.54617	-1539.87036	-273.25040	511.46399	-1522.46057							
90	0.890																									192.27551	1141.68127	-1609.24207				166.32063	857.92194	-1479.62366													55.30114	510.63391	-1539.65552	-273.23526	511.52371	-1522.37109							
91	0.900																									192.15128	1140.64270	-1605.88550				165.41344	858.45306	-1476.19189													55.30325	510.64291	-1539.63647	-273.24249	511.50089	-1522.41504							
92	0.910																									191.94658	1140.83252	-1604.83069				163.54456	860.01080	-1474.14929													55.28733	510.60031	-1539.78418	-273.24225	511.52008	-1522.41797							
93	0.920																									191.75851	1141.03003	-1603.75427				162.32990	860.32733	-1470.08557													55.32079	510.74173	-1539.48047	-273.28360	511.46402	-1522.68652							
94	0.930																									191.53316	1141.23279	-1602.62390				161.34308	860.91364	-1466.26660													55.29519	510.68231	-1539.71948	-273.25488	511.53571	-1522.50732							
95	0.940																									191.29446	1141.44507	-1601.43848				160.20665	862.20392	-1463.28870													55.29686	510.67902	-1539.70288	-273.27481	511.52646	-1522.64075							
96	0.950																									191.04924	1141.67896	-1600.14807				158.07126	863.10040	-1459.46521													55.31499	510.75833	-1539.53857	-273.27036	511.54123	-1522.61401							
97	0.960																									190.16991	1141.73596	-1598.81848				156.94258	864.41418	-1456.45349													55.32842	510.82883	-1539.41846	-273.25931	511.56866	-1522.54492							
98	0.970																									190.12729	1141.00122	-1595.52893				155.78246	865.20886	-1452.15649													55.33026	510.81204	-1539.39844	-272.76523	511.70844	-1524.19006							
99	0.980																									189.88945	1141.24768	-1594.18872				153.86166	866.47858	-1448.54321													55.33858	510.88467	-1539.32788	-272.76666	511.74396	-1524.20813							
100	0.990																									188.80263	1141.78613	-1593.71973				152.10345	868.11157	-1445.49670													55.34716	510.91562	-1539.24927	-272.76059	511.73969	-1524.16577							
101	1.000																									188.55830	1142.02258	-1592.42017				150.87196	869.03754	-1441.25598													55.35612	510.91916	-1539.16333	-272.76428	511.76648	-1524.19714							
102	1.010																									188.22714	1141.64832	-1589.96228				148.86221	870.50098	-1437.61572													55.37303	511.05939	-1539.01880	-272.77734	511.76230	-1524.28503							
103	1.020																									187.42332	1142.11536	-1589.00830				147.11800	872.26215	-1434.50732													55.36873	510.98138	-1539.05005	-272.78079	511.78326	-1524.31335							
104	1.030																									187.18900	1142.32178	-1587.85864				145.87128	873.25922	-1430.25708													55.36975	511.02570	-1539.04602	-273.05096	512.80975	-1523.11047							
105	1.040																									186.95027	1142.56018	-1586.55701				143.47113	874.91492	-1426.96130													56.27979	510.19727	-1541.66199	-273.04498	512.86609	-1523.08289							
106	1.050																									186.76111	1142.78564	-1585.35681				141.84174	876.56396	-1423.85974													56.27477	510.17496	-1541.70764	-273.04337	512.87567	-1523.07410							
107	1.060																									186.55705	1143.03735	-1584.02307				140.25159	878.03467	-1420.48547													56.28470	510.18771	-1541.61353	-272.47540	512.91248	-1525.10779							
108	1.070																									185.67874	1142.83313	-1582.19617				137.98955	879.98425	-1417.90417													56.31346	510.31815	-1541.35291	-272.71658	511.97107	-1523.91895							
109	1.080																									185.47174	1143.05872	-1580.98242				136.45450	880.74286	-1413.64417													56.29831	510.29761	-1541.49634	-272.21445	511.80621	-1526.09607							
110	1.090																									185.02423	1142.89783	-1579.27197				134.46907	882.70148	-1411.19788													56.30353	510.28381	-1541.44421	-272.18906	511.88593	-1525.94141							
111	1.100																									184.82484	1143.11792	-1578.09045				132.73744	884.95605	-1409.35071													56.31839	510.36859	-1541.31177	-272.15341	511.96078	-1525.71533							
112	1.110																									184.67465	1143.29321	-1577.15674				131.22971	886.07318	-1405.86035													56.32557	510.33234	-1541.23792	-272.14532	511.95615	-1525.65894							
113	1.120																									184.50322	1143.46033	-1576.24426				129.95351	887.82513	-1403.50793													56.32633	510.38580	-1541.23743	-272.13409	511.99741	-1525.59192							
114	1.130																									184.35425	1143.63037	-1575.33691				128.18726	888.89471	-1400.19653													56.32860	510.40372	-1541.21790	-272.12933	512.00787	-1525.56189							
115	1.140																									184.22797	1143.77271	-1574.57654				126.72140	890.19391	-1397.36169													56.33547	510.44220	-1541.15649	-272.13367	512.00024	-1525.58960							
116	1.150																									184.30740	1142.97107	-1571.99524				125.50155	891.34863	-1394.66113													56.34112	510.46384	-1541.10474	-272.07864	512.11066	-1525.23975							
117	1.160																									184.16208	1143.08533	-1571.35083				124.18793	892.96039	-1392.93896													56.34519	510.47195	-1541.06653	-272.03552	512.18732	-1524.96326							
118	1.170																									184.28195	1142.25635	-1568.93445				122.34330	894.43225	-1391.14075													56.34406	510.49106	-1541.07996	-272.03113	512.19305	-1524.93445							
119	1.180																									184.16414	1142.34558	-1568.42871				121.55434	895.41748	-1389.27539													56.35875	510.53552	-1540.94397	-272.02826	512.18701	-1524.91345							
120	1.190																									184.04071	1142.42871	-1567.94653				120.49348	896.38300	-1387.82800													56.34746	510.50388	-1541.04871	-271.97534	512.23547	-1524.56348							
121	1.200																									183.49654	1141.52222	-1565.69653				119.63740	897.70581	-1387.77954													56.35011	510.46805	-1541.01868	-271.92160	512.30585	-1524.21289							
122	1.210																									183.38437	1141.56714	-1565.40027				118.66923	898.36987	-1387.06030													56.36486	510.47025	-1540.87683	-271.86819	512.37531	-1523.86426							
123	1.220																									183.30907	1141.61340	-1565.12720				118.08700	898.66986	-1386.21472													56.40010	510.58676	-1540.55188	-271.80795	512.41046	-1523.46094							
124	1.230																									183.21687	1141.62244	-1565.01306				117.75807	898.94147	-1385.72437													56.66482	509.72516	-1540.89417	-271.76270	512.48773	-1523.16980							
125	1.240																									183.12633	1141.60571	-1565.01953				117.05794	899.94360	-1386.59448													56.71361	509.78378	-1540.43152	-272.19321	512.69733	-1520.51758							
126	1.250																									183.03345	1141.57080	-1565.10791				116.83999	900.16125	-1386.16174													57.40720	509.07858	-1541.63379	-272.08243	512.82257	-1519.79089							
127	1.260																									182.97052	1141.53723	-1565.21423				116.33592	900.56403	-1386.20190													57.98116	508.19943	-1542.23853	-271.98999	512.91736	-1519.18176							
128	1.270																									182.90411	1141.47852	-1565.43384				115.50756	900.25952	-1385.91650													58.05681	508.35764	-1541.52832	-271.95093	512.94434	-1518.92139							
129	1.280																									182.85017	1141.40259	-1565.74280				113.35603	898.95209	-1385.98608													58.18588	508.54407	-1540.30627	-272.20956	513.12274	-1515.75098							
130	1.290																									182.82327	1141.33472	-1566.03528				113.35461	898.95087	-1386.00000													58.25212	508.56192	-1539.66919	-272.11856	513.21930	-1515.15271							
131	1.300																									182.78799	1141.25952	-1566.35559				113.35987	898.95245	-1385.94800													58.36999	508.77466	-1538.55725	-272.03040	513.30450	-1514.57104							
132	1.310																									182.77652	1141.16565	-1566.78101				115.60929	899.64484	-1385.45935													58.50259	508.96100	-1537.29895	-271.91391	513.43365	-1513.80603							
133	1.320																									182.79749	1141.06152	-1567.27893				115.91344	898.92853	-1385.39648													58.57289	509.00153	-1536.62354	-271.82712	513.50903	-1513.23096							
134	1.330																									182.83182	1140.95959	-1567.77698				116.16576	898.32800	-1385.59534													58.70317	509.26190	-1535.39636	-271.81766	512.98700	-1511.91870							
135	1.340																									182.84946	1140.87024	-1568.20410				116.41707	897.41412	-1385.65833													58.81335	509.50131	-1534.36096	-271.77768	513.08032	-1511.66797							
136	1.350																									182.88918	1140.77002	-1568.69922				116.49238	896.62805	-1386.19897													58.87432	509.71072	-1533.79871	-271.69724	513.21985	-1511.15198							
137	1.360																									182.91539	1140.66431	-1569.20862				116.43341	895.83997	-1387.26465													58.26867	510.00107	-1531.52844	-271.54092	513.48218	-1510.14734							
138	1.370																									183.52516	1139.87878	-1568.25171				116.59956	894.57941	-1388.11890													58.33120	510.21564	-1530.95239	-271.50720	513.51379	-1509.92444							
139	1.380																									183.56953	1139.78320	-1568.72803				116.71365	893.31665	-1389.35901													58.44388	510.51968	-1529.90320	-271.40320	513.63171	-1509.24255							
140	1.390																									184.13434	1138.87915	-1567.53162				117.11371	892.15039	-1391.28467													59.03474	509.79910	-1530.49414	-271.43863	512.95709	-1508.19983							
141	1.400																									184.18112	1138.78040	-1568.02441				117.96017	890.02960	-1392.17004				73.80713	1001.96454	-1490.89282							59.22219	509.34491	-1529.93982	-271.34689	512.98730	-1507.58118							
142	1.410																									184.21938	1138.69983	-1568.42651				118.58167	888.32855	-1393.93323				73.90272	1002.05017	-1489.98816							59.31917	509.59683	-1529.03491	-271.28839	512.92944	-1507.16797							
143	1.420																									184.27966	1138.61841	-1568.85022				119.30171	886.92004	-1396.21252				74.00306	1002.15741	-1489.03882							59.97290	508.85492	-1530.04822	-271.64746	512.82037	-1504.62598							
144	1.430																									184.35533	1138.55164	-1569.21814				120.35798	885.45099	-1398.76526				74.10942	1002.20471	-1488.02942							60.06081	509.08243	-1529.22693	-272.37048	512.54425	-1500.71509							
145	1.440																									184.44437	1138.47437	-1569.64502				122.21268	883.33990	-1400.50391				74.17456	1001.43262	-1486.92224							59.87347	508.75006	-1527.66125	-272.09796	511.25089	-1500.73145							
